<svg width="129" height="74" viewBox="0 0 129 74" fill="none" xmlns="http://www.w3.org/2000/svg">
<line x1="0.622745" y1="40.5192" x2="49.6227" y2="1.51915" stroke="white" stroke-width="2"/>
<line x1="95.6069" y1="41.0711" x2="48.6069" y2="2.07114" stroke="white" stroke-width="2"/>
<line x1="108.599" y1="41.0643" x2="62.5988" y2="2.06433" stroke="white" stroke-width="2"/>
<line x1="128.233" y1="49.3015" x2="46.2333" y2="48.3015" stroke="white" stroke-width="2"/>
<line x1="56.4862" y1="7.65078" x2="62.4862" y2="0.650783" stroke="white" stroke-width="2"/>
<line x1="20.2455" y1="10.3016" x2="28.2455" y2="10.3016" stroke="white" stroke-width="2"/>
<path d="M69.3634 71.1534C69.0774 71.1534 68.865 71.1391 68.726 71.1107V72.8248C68.726 72.9216 68.7476 72.9786 68.7909 72.9957C68.8456 73.0173 68.9852 73.0281 69.2096 73.0281H69.5668L69.5531 73.3016H67.6903V73.0281H67.851C68.0002 73.0281 68.0845 73.0224 68.1039 73.011C68.1233 72.9985 68.1369 72.9826 68.1449 72.9632C68.1552 72.9427 68.1603 72.8965 68.1603 72.8248V69.1641C68.1603 69.0342 68.1073 68.9573 68.0014 68.9334C67.9421 68.9197 67.8549 68.9129 67.7399 68.9129H67.5433L67.5502 68.6326H69.16C69.5315 68.6326 69.8208 68.6566 70.0282 68.7044C70.2367 68.7511 70.4218 68.8406 70.5836 68.9727C70.7465 69.1037 70.8707 69.2553 70.9562 69.4273C71.0428 69.5982 71.0861 69.7503 71.0861 69.8836C71.0861 70.0169 71.0752 70.1263 71.0536 70.2117C71.0331 70.2972 70.9978 70.3832 70.9476 70.4698C70.8986 70.5552 70.8366 70.6339 70.7614 70.7056C70.595 70.864 70.3694 70.9802 70.0846 71.0543L71.4279 72.8401C71.4917 72.9199 71.5446 72.9712 71.5868 72.994C71.629 73.0167 71.6768 73.0281 71.7304 73.0281H72.0311L72.0448 73.3016H71.0297L69.5309 71.1448L69.3634 71.1534ZM68.726 70.8799C68.7818 70.9267 68.9316 70.95 69.1754 70.95C69.5993 70.95 69.908 70.8771 70.1017 70.7313C70.2954 70.5854 70.3922 70.3593 70.3922 70.0528C70.3922 69.7156 70.268 69.4427 70.0197 69.2342C69.7645 69.02 69.4033 68.9129 68.9362 68.9129C68.8541 68.9129 68.8017 68.9266 68.7789 68.9539C68.7436 68.9972 68.726 69.0906 68.726 69.2342V70.8799ZM73.9161 72.9803C74.8493 72.9712 75.4047 72.9592 75.5824 72.9444C75.7613 72.9296 75.8632 72.9096 75.8883 72.8846C75.9134 72.8595 75.9322 72.8288 75.9447 72.7923C75.9584 72.7547 75.996 72.5513 76.0575 72.1822L76.2968 72.2164L76.1207 73.3016H72.5729V73.0281H72.754C72.9284 73.0281 73.028 73.0196 73.0531 73.0025C73.0793 72.9843 73.0975 72.9632 73.1078 72.9393C73.1192 72.9096 73.1249 72.851 73.1249 72.7632V69.2137C73.1249 69.0747 73.0998 68.9881 73.0497 68.9539C73.0064 68.9266 72.868 68.9129 72.6344 68.9129H72.4396L72.4327 68.6326H76.037C76.0438 69.0348 76.0558 69.4011 76.0729 69.7315L75.7994 69.7452C75.7824 69.2849 75.7476 69.0268 75.6952 68.971C75.6792 68.9539 75.6525 68.9437 75.6149 68.9402C75.5784 68.9357 75.4696 68.9334 75.2885 68.9334H74.0973C73.9048 68.9334 73.7954 68.9437 73.7692 68.9642C73.743 68.9847 73.7242 69.0097 73.7128 69.0394C73.6991 69.0735 73.6923 69.1482 73.6923 69.2632V70.2357C73.6923 70.3724 73.6991 70.4487 73.7128 70.4647C73.7276 70.4795 73.7447 70.4909 73.764 70.4988C73.7891 70.5102 73.8421 70.5159 73.923 70.5159H74.9808C75.1039 70.5159 75.1745 70.504 75.1928 70.48C75.211 70.455 75.2235 70.4276 75.2304 70.398C75.2406 70.3593 75.2457 70.2818 75.2457 70.1656V69.899L75.5055 69.9058V71.5789H75.2457V71.2149C75.2457 71.0201 75.2361 70.9107 75.2167 70.8868C75.1973 70.8629 75.1836 70.8486 75.1757 70.8441C75.1688 70.8384 75.1535 70.8338 75.1295 70.8304C75.1067 70.8258 75.0879 70.8235 75.0731 70.8235H73.9435C73.8273 70.8235 73.7578 70.8349 73.735 70.8577C73.7065 70.8885 73.6923 70.9494 73.6923 71.0406V72.6932C73.6923 72.8139 73.7065 72.892 73.735 72.9273C73.7635 72.9626 73.8239 72.9803 73.9161 72.9803ZM76.6027 73.0281H76.6864C76.8117 73.0281 76.8955 73.0065 76.9376 72.9632C76.9798 72.9199 77.0282 72.8367 77.0829 72.7137C77.1387 72.5895 77.2099 72.4306 77.2965 72.2369C77.3842 72.0421 77.4948 71.7965 77.6281 71.5003C77.7614 71.2029 77.8576 70.9887 77.9169 70.8577C77.9761 70.7267 78.0274 70.6145 78.0707 70.5211C78.114 70.4265 78.1436 70.3604 78.1596 70.3228C78.1755 70.2852 78.1932 70.2442 78.2125 70.1998L78.9252 68.4651H79.0722C79.3547 69.2023 79.7119 70.0938 80.1437 71.1397C80.5755 72.1845 80.8142 72.7496 80.8597 72.835C80.9053 72.9205 80.952 72.974 80.9999 72.9957C81.0489 73.0173 81.1161 73.0281 81.2015 73.0281H81.3058L81.299 73.3016H79.7028L79.7096 73.0281H79.9198C80.036 73.0281 80.1163 73.0236 80.1608 73.0145C80.2052 73.0042 80.2274 72.9809 80.2274 72.9444C80.2274 72.9182 80.2166 72.8789 80.195 72.8265C80.1744 72.7729 80.1619 72.7399 80.1574 72.7274L79.6395 71.4542H78.016L77.4623 72.6863C77.4156 72.8003 77.3922 72.8795 77.3922 72.9239C77.3922 72.9683 77.4099 72.9968 77.4452 73.0093C77.4817 73.0219 77.5597 73.0281 77.6793 73.0281H77.9664V73.3016H76.6095L76.6027 73.0281ZM78.1493 71.1448H79.5216L78.8568 69.4871L78.1493 71.1448ZM81.6818 68.9129L81.6886 68.6326H83.4796V68.9129H83.1652C83.0353 68.9129 82.9601 68.922 82.9396 68.9402C82.9191 68.9573 82.9031 68.9756 82.8917 68.9949C82.8735 69.0257 82.8644 69.0844 82.8644 69.171V72.7068C82.8644 72.8538 82.8934 72.9393 82.9515 72.9632C82.9823 72.9746 83.0302 72.9803 83.0951 72.9803C84.2743 72.9734 84.8952 72.9387 84.9579 72.876C84.9932 72.8407 85.0194 72.782 85.0365 72.7C85.0536 72.618 85.0673 72.5496 85.0775 72.4949C85.0889 72.4402 85.0992 72.385 85.1083 72.3292C85.1185 72.2722 85.1311 72.2021 85.1459 72.119L85.3903 72.1326L85.1596 73.3016H81.7792L81.7723 73.0281H81.9689C82.1284 73.0281 82.2184 73.0185 82.2389 72.9991C82.2605 72.9786 82.2736 72.9638 82.2782 72.9547C82.2828 72.9455 82.2868 72.9296 82.2902 72.9068C82.2947 72.876 82.297 72.8282 82.297 72.7632V69.1436C82.297 69.0434 82.2719 68.9801 82.2218 68.9539C82.1717 68.9266 82.0731 68.9129 81.9262 68.9129H81.6818ZM89.837 72.9803C90.7701 72.9712 91.3256 72.9592 91.5033 72.9444C91.6822 72.9296 91.7841 72.9096 91.8092 72.8846C91.8343 72.8595 91.8531 72.8288 91.8656 72.7923C91.8793 72.7547 91.9169 72.5513 91.9784 72.1822L92.2177 72.2164L92.0416 73.3016H88.4938V73.0281H88.6749C88.8493 73.0281 88.9489 73.0196 88.974 73.0025C89.0002 72.9843 89.0184 72.9632 89.0287 72.9393C89.0401 72.9096 89.0458 72.851 89.0458 72.7632V69.2137C89.0458 69.0747 89.0207 68.9881 88.9706 68.9539C88.9273 68.9266 88.7889 68.9129 88.5553 68.9129H88.3605L88.3536 68.6326H91.9579C91.9647 69.0348 91.9767 69.4011 91.9938 69.7315L91.7203 69.7452C91.7033 69.2849 91.6685 69.0268 91.6161 68.971C91.6001 68.9539 91.5734 68.9437 91.5358 68.9402C91.4993 68.9357 91.3905 68.9334 91.2094 68.9334H90.0182C89.8257 68.9334 89.7163 68.9437 89.6901 68.9642C89.6639 68.9847 89.6451 69.0097 89.6337 69.0394C89.62 69.0735 89.6132 69.1482 89.6132 69.2632V70.2357C89.6132 70.3724 89.62 70.4487 89.6337 70.4647C89.6485 70.4795 89.6656 70.4909 89.6849 70.4988C89.71 70.5102 89.763 70.5159 89.8439 70.5159H90.9017C91.0248 70.5159 91.0954 70.504 91.1137 70.48C91.1319 70.455 91.1444 70.4276 91.1513 70.398C91.1615 70.3593 91.1666 70.2818 91.1666 70.1656V69.899L91.4264 69.9058V71.5789H91.1666V71.2149C91.1666 71.0201 91.1569 70.9107 91.1376 70.8868C91.1182 70.8629 91.1045 70.8486 91.0966 70.8441C91.0897 70.8384 91.0743 70.8338 91.0504 70.8304C91.0276 70.8258 91.0088 70.8235 90.994 70.8235H89.8644C89.7482 70.8235 89.6787 70.8349 89.6559 70.8577C89.6274 70.8885 89.6132 70.9494 89.6132 71.0406V72.6932C89.6132 72.8139 89.6274 72.892 89.6559 72.9273C89.6844 72.9626 89.7448 72.9803 89.837 72.9803ZM92.9252 73.4981C92.8876 73.2885 92.7964 72.8265 92.6517 72.1121L92.8978 72.0831L92.9884 72.5172C93.0203 72.6698 93.0454 72.7575 93.0636 72.7803C93.083 72.802 93.1058 72.8219 93.132 72.8401C93.1593 72.8572 93.1844 72.8698 93.2072 72.8777C93.2299 72.8857 93.2937 72.9085 93.3986 72.9461C93.6355 73.0293 93.8674 73.0709 94.0941 73.0709C94.322 73.0709 94.506 73.0378 94.6461 72.9717C94.7863 72.9057 94.8996 72.8071 94.9862 72.6761C95.0728 72.5451 95.1161 72.4158 95.1161 72.2881C95.1161 72.1594 95.099 72.0552 95.0648 71.9754C95.0306 71.8957 94.9874 71.8244 94.9349 71.7618C94.8837 71.6991 94.8165 71.6347 94.7333 71.5687C94.6057 71.4684 94.4348 71.3602 94.2206 71.244L93.9335 71.0833C93.6486 70.9238 93.4652 70.8047 93.3832 70.7261C93.3012 70.6475 93.2339 70.5763 93.1815 70.5125C93.1303 70.4487 93.0892 70.3832 93.0585 70.316C92.989 70.1644 92.9542 70.0004 92.9542 69.8238C92.9542 69.6461 92.9941 69.4786 93.0739 69.3214C93.1536 69.1641 93.2584 69.032 93.3883 68.9249C93.6697 68.6924 93.9893 68.5762 94.3471 68.5762C94.5248 68.5762 94.6837 68.5996 94.8239 68.6463C94.964 68.693 95.0437 68.7164 95.0631 68.7164C95.0825 68.7164 95.1007 68.7016 95.1178 68.6719C95.136 68.6412 95.1474 68.5956 95.152 68.5352L95.3895 68.5198L95.4938 69.8016L95.2426 69.8084L95.1793 69.1863C95.0312 69.0713 94.8204 68.9881 94.547 68.9368C94.441 68.9163 94.3248 68.9061 94.1984 68.9061C94.073 68.9061 93.9489 68.9374 93.8258 69.0001C93.7028 69.0627 93.6036 69.1516 93.5285 69.2667C93.4533 69.3817 93.4157 69.4934 93.4157 69.6016C93.4157 69.7099 93.4259 69.7976 93.4464 69.8648C93.4669 69.9309 93.4977 69.993 93.5387 70.0511C93.5809 70.1092 93.6264 70.1633 93.6754 70.2134C93.7244 70.2636 93.7848 70.3143 93.8566 70.3655C93.9671 70.4442 94.1118 70.5336 94.2907 70.6339L94.6752 70.8441C94.9498 70.9967 95.1343 71.1164 95.2289 71.2029C95.3246 71.2895 95.3981 71.3636 95.4493 71.4251C95.5018 71.4855 95.5445 71.547 95.5775 71.6097C95.6482 71.7475 95.6835 71.8905 95.6835 72.0386C95.6835 72.1856 95.6613 72.3229 95.6168 72.4505C95.5735 72.577 95.5069 72.696 95.4169 72.8077C95.328 72.9182 95.2209 73.0145 95.0956 73.0965C94.8267 73.2754 94.4929 73.3648 94.0941 73.3648C93.8685 73.3648 93.6851 73.3437 93.5438 73.3016C93.4026 73.2594 93.3154 73.2383 93.2824 73.2383C93.198 73.2383 93.1559 73.2873 93.1559 73.3853L93.1627 73.4759L92.9252 73.4981ZM100.315 68.6326L100.231 69.752L99.9782 69.7452C100.007 69.4102 100.021 69.2074 100.021 69.1368C100.021 69.065 99.9958 69.0143 99.9457 68.9847C99.8967 68.9551 99.8027 68.9402 99.6637 68.9402C99.3549 68.9402 99.1163 68.9402 98.9476 68.9402C98.779 68.9402 98.6793 68.9431 98.6486 68.9488C98.6189 68.9545 98.5973 68.959 98.5836 68.9625C98.57 68.9647 98.5557 68.9739 98.5409 68.9898C98.5261 69.0058 98.5164 69.0189 98.5118 69.0291C98.5084 69.0382 98.5044 69.0587 98.4999 69.0906C98.4965 69.1214 98.4948 69.1476 98.4948 69.1693V72.7068C98.4948 72.8515 98.5181 72.9421 98.5648 72.9786C98.607 73.0116 98.7186 73.0281 98.8998 73.0281H99.1801L99.1869 73.3016L97.3395 73.2947V73.0281C97.4181 73.0281 97.4842 73.0281 97.5377 73.0281C97.5913 73.0281 97.6363 73.027 97.6727 73.0247C97.7092 73.0224 97.736 73.0207 97.7531 73.0196C97.7701 73.0173 97.7895 73.0133 97.8112 73.0076C97.834 73.0008 97.8493 72.9945 97.8573 72.9888C97.8664 72.9831 97.8767 72.974 97.8881 72.9615C97.8995 72.949 97.9063 72.937 97.9086 72.9256C97.912 72.9131 97.9154 72.896 97.9188 72.8743C97.9245 72.8481 97.9274 72.8014 97.9274 72.7342V69.3333C97.9274 69.1544 97.916 69.0502 97.8932 69.0206C97.8715 68.9898 97.8471 68.9699 97.8197 68.9608C97.7844 68.9471 97.7177 68.9402 97.6198 68.9402H96.8849C96.7322 68.9402 96.6377 68.9528 96.6012 68.9778C96.5647 69.0018 96.5391 69.0251 96.5243 69.0479C96.5095 69.0707 96.4975 69.0969 96.4884 69.1265C96.4804 69.155 96.473 69.1903 96.4662 69.2325C96.4594 69.286 96.4514 69.3755 96.4423 69.5008C96.4343 69.625 96.428 69.7138 96.4235 69.7674L96.1705 69.7589C96.2116 69.3635 96.2463 68.9881 96.2748 68.6326H100.315ZM99.9884 73.0281H100.072C100.197 73.0281 100.281 73.0065 100.323 72.9632C100.366 72.9199 100.414 72.8367 100.469 72.7137C100.524 72.5895 100.596 72.4306 100.682 72.2369C100.77 72.0421 100.881 71.7965 101.014 71.5003C101.147 71.2029 101.243 70.9887 101.303 70.8577C101.362 70.7267 101.413 70.6145 101.456 70.5211C101.5 70.4265 101.529 70.3604 101.545 70.3228C101.561 70.2852 101.579 70.2442 101.598 70.1998L102.311 68.4651H102.458C102.74 69.2023 103.098 70.0938 103.529 71.1397C103.961 72.1845 104.2 72.7496 104.245 72.835C104.291 72.9205 104.338 72.974 104.386 72.9957C104.435 73.0173 104.502 73.0281 104.587 73.0281H104.692L104.685 73.3016H103.089L103.095 73.0281H103.306C103.422 73.0281 103.502 73.0236 103.547 73.0145C103.591 73.0042 103.613 72.9809 103.613 72.9444C103.613 72.9182 103.602 72.8789 103.581 72.8265C103.56 72.7729 103.548 72.7399 103.543 72.7274L103.025 71.4542H101.402L100.848 72.6863C100.801 72.8003 100.778 72.8795 100.778 72.9239C100.778 72.9683 100.796 72.9968 100.831 73.0093C100.867 73.0219 100.945 73.0281 101.065 73.0281H101.352V73.3016H99.9952L99.9884 73.0281ZM101.535 71.1448H102.907L102.243 69.4871L101.535 71.1448ZM108.607 68.6326L108.523 69.752L108.27 69.7452C108.299 69.4102 108.313 69.2074 108.313 69.1368C108.313 69.065 108.288 69.0143 108.238 68.9847C108.189 68.9551 108.095 68.9402 107.956 68.9402C107.647 68.9402 107.408 68.9402 107.24 68.9402C107.071 68.9402 106.971 68.9431 106.941 68.9488C106.911 68.9545 106.889 68.959 106.876 68.9625C106.862 68.9647 106.848 68.9739 106.833 68.9898C106.818 69.0058 106.808 69.0189 106.804 69.0291C106.8 69.0382 106.796 69.0587 106.792 69.0906C106.788 69.1214 106.787 69.1476 106.787 69.1693V72.7068C106.787 72.8515 106.81 72.9421 106.857 72.9786C106.899 73.0116 107.011 73.0281 107.192 73.0281H107.472L107.479 73.3016L105.631 73.2947V73.0281C105.71 73.0281 105.776 73.0281 105.83 73.0281C105.883 73.0281 105.928 73.027 105.965 73.0247C106.001 73.0224 106.028 73.0207 106.045 73.0196C106.062 73.0173 106.082 73.0133 106.103 73.0076C106.126 73.0008 106.141 72.9945 106.149 72.9888C106.158 72.9831 106.169 72.974 106.18 72.9615C106.191 72.949 106.198 72.937 106.201 72.9256C106.204 72.9131 106.207 72.896 106.211 72.8743C106.217 72.8481 106.219 72.8014 106.219 72.7342V69.3333C106.219 69.1544 106.208 69.0502 106.185 69.0206C106.164 68.9898 106.139 68.9699 106.112 68.9608C106.076 68.9471 106.01 68.9402 105.912 68.9402H105.177C105.024 68.9402 104.93 68.9528 104.893 68.9778C104.857 69.0018 104.831 69.0251 104.816 69.0479C104.801 69.0707 104.79 69.0969 104.78 69.1265C104.772 69.155 104.765 69.1903 104.758 69.2325C104.751 69.286 104.743 69.3755 104.734 69.5008C104.726 69.625 104.72 69.7138 104.715 69.7674L104.463 69.7589C104.504 69.3635 104.538 68.9881 104.567 68.6326H108.607ZM110.468 72.9803C111.401 72.9712 111.956 72.9592 112.134 72.9444C112.313 72.9296 112.415 72.9096 112.44 72.8846C112.465 72.8595 112.484 72.8288 112.496 72.7923C112.51 72.7547 112.548 72.5513 112.609 72.1822L112.849 72.2164L112.672 73.3016H109.125V73.0281H109.306C109.48 73.0281 109.58 73.0196 109.605 73.0025C109.631 72.9843 109.649 72.9632 109.66 72.9393C109.671 72.9096 109.677 72.851 109.677 72.7632V69.2137C109.677 69.0747 109.652 68.9881 109.601 68.9539C109.558 68.9266 109.42 68.9129 109.186 68.9129H108.991L108.985 68.6326H112.589C112.596 69.0348 112.608 69.4011 112.625 69.7315L112.351 69.7452C112.334 69.2849 112.299 69.0268 112.247 68.971C112.231 68.9539 112.204 68.9437 112.167 68.9402C112.13 68.9357 112.021 68.9334 111.84 68.9334H110.649C110.457 68.9334 110.347 68.9437 110.321 68.9642C110.295 68.9847 110.276 69.0097 110.265 69.0394C110.251 69.0735 110.244 69.1482 110.244 69.2632V70.2357C110.244 70.3724 110.251 70.4487 110.265 70.4647C110.279 70.4795 110.296 70.4909 110.316 70.4988C110.341 70.5102 110.394 70.5159 110.475 70.5159H111.533C111.656 70.5159 111.726 70.504 111.745 70.48C111.763 70.455 111.775 70.4276 111.782 70.398C111.792 70.3593 111.797 70.2818 111.797 70.1656V69.899L112.057 69.9058V71.5789H111.797V71.2149C111.797 71.0201 111.788 70.9107 111.768 70.8868C111.749 70.8629 111.735 70.8486 111.727 70.8441C111.721 70.8384 111.705 70.8338 111.681 70.8304C111.658 70.8258 111.64 70.8235 111.625 70.8235H110.495C110.379 70.8235 110.31 70.8349 110.287 70.8577C110.258 70.8885 110.244 70.9494 110.244 71.0406V72.6932C110.244 72.8139 110.258 72.892 110.287 72.9273C110.315 72.9626 110.376 72.9803 110.468 72.9803Z" fill="white"/>
<path d="M63.0253 55.4061C63.8274 55.4347 64.4504 55.449 64.8944 55.449C65.3384 55.449 65.9615 55.4347 66.7636 55.4061C66.7779 55.4634 66.785 55.5027 66.785 55.5242C66.785 55.5493 66.7779 55.5941 66.7636 55.6585C66.5988 55.6728 66.4646 55.6889 66.3607 55.7068C66.2605 55.7212 66.1351 55.7462 65.9847 55.782C65.8379 55.8179 65.7251 55.8698 65.6464 55.9378C65.5676 56.0023 65.5264 56.081 65.5228 56.1741C65.4763 57.2448 65.453 58.242 65.453 59.1658C65.8505 59.1802 66.452 59.1873 67.2577 59.1873C67.9166 59.1873 68.5772 59.1766 69.2396 59.1551C69.2253 57.8231 69.2074 56.8294 69.1859 56.1741C69.1823 56.081 69.1412 56.0023 69.0624 55.9378C68.9836 55.8698 68.869 55.8179 68.7186 55.782C68.5682 55.7462 68.4411 55.7212 68.3373 55.7068C68.237 55.6889 68.1045 55.6728 67.9398 55.6585C67.9255 55.5941 67.9183 55.5493 67.9183 55.5242C67.9183 55.5027 67.9255 55.4634 67.9398 55.4061C68.7491 55.4347 69.3721 55.449 69.809 55.449C70.2494 55.449 70.8742 55.4347 71.6835 55.4061C71.6978 55.4634 71.705 55.5027 71.705 55.5242C71.705 55.5493 71.6978 55.5941 71.6835 55.6585C71.5188 55.6728 71.3845 55.6889 71.2806 55.7068C71.1804 55.7212 71.0551 55.7462 70.9047 55.782C70.7543 55.8179 70.6397 55.8698 70.5609 55.9378C70.4821 56.0023 70.441 56.081 70.4374 56.1741C70.4016 57.0657 70.3837 58.1328 70.3837 59.3753C70.3837 60.6107 70.4016 61.6741 70.4374 62.5657C70.441 62.6588 70.4821 62.7394 70.5609 62.8074C70.6397 62.8719 70.7543 62.922 70.9047 62.9578C71.0551 62.9936 71.1804 63.0205 71.2806 63.0384C71.3845 63.0527 71.5188 63.067 71.6835 63.0814C71.6978 63.1387 71.705 63.187 71.705 63.2264C71.705 63.255 71.6978 63.2908 71.6835 63.3338C71.0748 63.3123 70.4499 63.3016 69.809 63.3016C69.168 63.3016 68.545 63.3123 67.9398 63.3338C67.9255 63.2908 67.9183 63.255 67.9183 63.2264C67.9183 63.1655 67.9255 63.1172 67.9398 63.0814C68.1045 63.067 68.2388 63.0527 68.3427 63.0384C68.4465 63.0205 68.5736 62.9936 68.724 62.9578C68.8744 62.922 68.989 62.8719 69.0678 62.8074C69.1465 62.7394 69.1859 62.6588 69.1859 62.5657C69.2146 61.2874 69.2325 60.3188 69.2396 59.66C68.5772 59.6385 67.9166 59.6277 67.2577 59.6277C66.8495 59.6277 66.2479 59.6349 65.453 59.6492C65.453 60.4119 65.4727 61.3841 65.5121 62.5657C65.5157 62.6588 65.5569 62.7394 65.6356 62.8074C65.7144 62.8719 65.8272 62.922 65.974 62.9578C66.1244 62.9936 66.2497 63.0205 66.35 63.0384C66.4538 63.0527 66.5881 63.067 66.7528 63.0814C66.7671 63.153 66.7743 63.2013 66.7743 63.2264C66.7743 63.255 66.7671 63.2908 66.7528 63.3338C66.1441 63.3123 65.521 63.3016 64.8837 63.3016C64.2391 63.3016 63.6161 63.3123 63.0145 63.3338C63.0002 63.2908 62.993 63.255 62.993 63.2264C62.993 63.1655 63.0002 63.1172 63.0145 63.0814C63.1792 63.067 63.3117 63.0527 63.412 63.0384C63.5158 63.0205 63.6412 62.9936 63.788 62.9578C63.9384 62.922 64.0529 62.8719 64.1317 62.8074C64.2105 62.7394 64.2517 62.6588 64.2553 62.5657C64.2982 61.445 64.3197 60.3152 64.3197 59.1766C64.3197 58.0164 64.3018 57.0156 64.266 56.1741C64.2624 56.081 64.2212 56.0023 64.1425 55.9378C64.0637 55.8698 63.9491 55.8179 63.7987 55.782C63.6519 55.7462 63.5266 55.7212 63.4227 55.7068C63.3225 55.6889 63.19 55.6728 63.0253 55.6585C63.011 55.5941 63.0038 55.5493 63.0038 55.5242C63.0038 55.4884 63.011 55.449 63.0253 55.4061ZM79.7616 55.2234C80.0373 55.2234 80.3274 55.2521 80.6317 55.3094C80.9397 55.3667 81.2422 55.4616 81.5394 55.5941C81.8402 55.723 82.1267 55.8948 82.3988 56.1097C82.6745 56.3209 82.9162 56.5805 83.1239 56.8885C83.3316 57.1964 83.4963 57.5563 83.618 57.9681C83.7434 58.3799 83.806 58.8525 83.806 59.386C83.806 59.9232 83.7452 60.3994 83.6234 60.8148C83.5017 61.2265 83.337 61.5864 83.1293 61.8943C82.9216 62.1987 82.6799 62.4565 82.4042 62.6678C82.132 62.8755 81.8438 63.0438 81.5394 63.1727C81.2387 63.298 80.9307 63.3875 80.6156 63.4412C80.3005 63.4985 79.9997 63.5272 79.7133 63.5272C79.4411 63.5272 79.1511 63.4985 78.8431 63.4412C78.5388 63.3875 78.2362 63.298 77.9354 63.1727C77.6347 63.0438 77.3464 62.8755 77.0707 62.6678C76.7986 62.4565 76.5569 62.1987 76.3456 61.8943C76.1379 61.5864 75.9714 61.2265 75.8461 60.8148C75.7243 60.3994 75.6635 59.9232 75.6635 59.386C75.6635 58.8346 75.7279 58.3494 75.8568 57.9305C75.9857 57.508 76.1558 57.1427 76.3671 56.8348C76.5819 56.5268 76.829 56.2708 77.1083 56.0667C77.3912 55.859 77.683 55.6925 77.9838 55.5672C78.2881 55.4419 78.5925 55.3541 78.8969 55.304C79.2048 55.2503 79.493 55.2234 79.7616 55.2234ZM79.7347 55.6102C79.3982 55.6102 79.0992 55.6657 78.8378 55.7767C78.5764 55.8877 78.3472 56.0381 78.1503 56.2278C77.9533 56.414 77.7868 56.6325 77.6508 56.8831C77.5147 57.1302 77.4037 57.3934 77.3178 57.6727C77.2354 57.952 77.1745 58.2384 77.1351 58.532C77.0993 58.8257 77.0814 59.1103 77.0814 59.386C77.0814 59.651 77.0993 59.9267 77.1351 60.2132C77.1709 60.4997 77.23 60.7825 77.3124 61.0618C77.3947 61.3375 77.5022 61.6007 77.6347 61.8514C77.7707 62.102 77.9372 62.3222 78.1342 62.512C78.3311 62.7018 78.5603 62.854 78.8217 62.9686C79.0866 63.0796 79.391 63.1351 79.7347 63.1351C80.0713 63.1351 80.3703 63.0814 80.6317 62.9739C80.8931 62.8629 81.1223 62.7143 81.3192 62.5281C81.5162 62.3384 81.6809 62.1199 81.8134 61.8729C81.9494 61.6222 82.0586 61.359 82.141 61.0833C82.2269 60.804 82.2878 60.5193 82.3236 60.2293C82.363 59.9393 82.3827 59.6582 82.3827 59.386C82.3827 59.1103 82.363 58.8257 82.3236 58.532C82.2878 58.2384 82.2269 57.952 82.141 57.6727C82.0586 57.3934 81.9494 57.1302 81.8134 56.8831C81.6773 56.6325 81.5108 56.414 81.3139 56.2278C81.1169 56.0381 80.8877 55.8877 80.6264 55.7767C80.365 55.6657 80.0678 55.6102 79.7347 55.6102ZM87.9042 55.4061C88.5774 55.4347 89.4242 55.449 90.4447 55.449L92.5233 61.0779H92.5502L94.7147 55.449H95.3324C95.7764 55.449 96.403 55.4347 97.2123 55.4061C97.2266 55.4634 97.2338 55.5027 97.2338 55.5242C97.2338 55.5493 97.2266 55.5941 97.2123 55.6585C97.0834 55.6693 96.9795 55.68 96.9008 55.6907C96.822 55.7015 96.7164 55.7194 96.5839 55.7444C96.455 55.7695 96.3511 55.7999 96.2723 55.8358C96.1936 55.868 96.1237 55.9145 96.0629 55.9754C96.002 56.0327 95.9698 56.0989 95.9662 56.1741C95.9304 57.0156 95.9125 58.0164 95.9125 59.1766C95.9125 60.3546 95.9358 61.4844 95.9823 62.5657C95.9859 62.6588 96.0271 62.7394 96.1058 62.8074C96.1846 62.8719 96.2974 62.922 96.4442 62.9578C96.5946 62.9936 96.7199 63.0205 96.8202 63.0384C96.924 63.0527 97.0583 63.067 97.223 63.0814C97.2374 63.1387 97.2445 63.187 97.2445 63.2264C97.2445 63.255 97.2374 63.2908 97.223 63.3338C96.6179 63.3123 95.9948 63.3016 95.3539 63.3016C94.7094 63.3016 94.0863 63.3123 93.4847 63.3338C93.4704 63.2908 93.4633 63.255 93.4633 63.2264C93.4633 63.1655 93.4704 63.1172 93.4847 63.0814C93.6495 63.067 93.7819 63.0527 93.8822 63.0384C93.9861 63.0205 94.1114 62.9936 94.2582 62.9578C94.4086 62.922 94.5232 62.8719 94.6019 62.8074C94.6807 62.7394 94.7219 62.6588 94.7255 62.5657C94.7613 61.4485 94.7792 60.4513 94.7792 59.574C94.7792 58.7326 94.7613 57.7747 94.7255 56.7005H94.6825L92.2279 63.1673H92.1742L89.5585 56.5716H89.4994C89.4708 57.4417 89.4564 58.4425 89.4564 59.574C89.4564 60.4048 89.4743 61.3751 89.5101 62.4852C89.5173 62.811 89.913 63.0097 90.6972 63.0814C90.7151 63.1422 90.724 63.1906 90.724 63.2264C90.724 63.2622 90.7151 63.298 90.6972 63.3338C90.1278 63.3123 89.6194 63.3016 89.1718 63.3016C88.8853 63.3016 88.4055 63.3123 87.7323 63.3338C87.7144 63.298 87.7055 63.2622 87.7055 63.2264C87.7055 63.1655 87.7144 63.1172 87.7323 63.0814C88.5236 63.0062 88.9193 62.8074 88.9193 62.4852C88.9623 61.368 88.9838 60.2651 88.9838 59.1766C88.9838 58.3924 88.973 57.5599 88.9515 56.679C88.948 56.5286 88.939 56.4033 88.9247 56.303C88.9104 56.1992 88.8835 56.1097 88.8441 56.0345C88.8047 55.9593 88.7636 55.9002 88.7206 55.8572C88.6776 55.8143 88.6114 55.7767 88.5219 55.7444C88.4323 55.7086 88.3446 55.6836 88.2587 55.6693C88.1763 55.6513 88.0582 55.6317 87.9042 55.6102C87.8899 55.5815 87.8827 55.5493 87.8827 55.5135C87.8827 55.4705 87.8899 55.4347 87.9042 55.4061ZM100.913 55.4061C101.715 55.4347 102.342 55.449 102.793 55.449C105.865 55.4311 107.566 55.4168 107.895 55.4061C107.942 55.7641 108.033 56.1043 108.169 56.4266C108.305 56.7453 108.479 57.0854 108.69 57.4471C108.662 57.508 108.599 57.5563 108.502 57.5921C108.373 57.3486 108.218 57.132 108.035 56.9422C107.852 56.7524 107.621 56.5734 107.342 56.4051C107.066 56.2368 106.721 56.0989 106.306 55.9915C105.894 55.8841 105.423 55.8125 104.893 55.7767H103.411C103.364 57.2913 103.341 58.4318 103.341 59.1981H104.871C104.975 59.1981 105.072 59.1909 105.162 59.1766C105.255 59.1587 105.341 59.13 105.419 59.0906C105.498 59.0477 105.568 59.0083 105.629 58.9725C105.693 58.9331 105.758 58.8758 105.822 58.8006C105.887 58.7218 105.94 58.6574 105.983 58.6072C106.026 58.5535 106.078 58.473 106.139 58.3655C106.2 58.2581 106.246 58.174 106.279 58.1131C106.311 58.0522 106.359 57.9573 106.424 57.8284C106.492 57.6995 106.544 57.6028 106.579 57.5384C106.69 57.5814 106.759 57.6279 106.784 57.678C106.633 57.943 106.506 58.2366 106.402 58.5589C106.298 58.8812 106.246 59.1497 106.246 59.3646C106.246 59.873 106.426 60.4334 106.784 61.0457C106.755 61.103 106.687 61.1513 106.579 61.1907C106.54 61.1191 106.485 61.0171 106.413 60.8846C106.345 60.7485 106.291 60.6447 106.252 60.5731C106.212 60.5014 106.159 60.4101 106.091 60.2991C106.023 60.1881 105.962 60.1022 105.908 60.0413C105.858 59.9804 105.792 59.9124 105.709 59.8372C105.631 59.762 105.552 59.7065 105.473 59.6707C105.394 59.6313 105.303 59.5991 105.199 59.574C105.099 59.5454 104.99 59.5311 104.871 59.5311H103.341C103.341 60.1004 103.36 61.248 103.4 62.9739H105.113C105.643 62.9381 106.114 62.8665 106.526 62.7591C106.941 62.6517 107.287 62.5138 107.562 62.3455C107.842 62.1772 108.073 61.9982 108.255 61.8084C108.438 61.6186 108.594 61.402 108.723 61.1585C108.819 61.1943 108.882 61.2409 108.911 61.2982C108.893 61.334 108.846 61.4199 108.771 61.556C108.696 61.692 108.646 61.7851 108.62 61.8353C108.595 61.8818 108.552 61.966 108.492 62.0877C108.434 62.2059 108.391 62.3026 108.363 62.3777C108.334 62.4494 108.3 62.5407 108.261 62.6517C108.225 62.7627 108.194 62.8719 108.169 62.9793C108.148 63.0832 108.13 63.1906 108.116 63.3016H103.4C102.429 63.3016 101.597 63.3123 100.902 63.3338C100.888 63.2908 100.881 63.255 100.881 63.2264C100.881 63.2013 100.888 63.153 100.902 63.0814C101.067 63.067 101.199 63.0527 101.3 63.0384C101.404 63.0205 101.529 62.9936 101.676 62.9578C101.826 62.922 101.941 62.8719 102.019 62.8074C102.098 62.7394 102.139 62.6588 102.143 62.5657C102.186 61.445 102.207 60.3152 102.207 59.1766C102.207 58.0164 102.19 57.0156 102.154 56.1741C102.15 56.081 102.109 56.0023 102.03 55.9378C101.951 55.8698 101.837 55.8179 101.686 55.782C101.54 55.7462 101.414 55.7212 101.31 55.7068C101.21 55.6889 101.078 55.6728 100.913 55.6585C100.899 55.5941 100.891 55.5493 100.891 55.5242C100.891 55.5027 100.899 55.4634 100.913 55.4061ZM117.574 57.678C117.438 57.0228 117.187 56.5143 116.822 56.1526C116.46 55.791 116.025 55.6102 115.517 55.6102C115.019 55.6102 114.633 55.7283 114.357 55.9647C114.085 56.201 113.949 56.5161 113.949 56.91C113.949 57.1284 113.968 57.3092 114.008 57.4525C114.047 57.5957 114.128 57.7353 114.249 57.8714C114.371 58.0039 114.548 58.122 114.781 58.2259C115.014 58.3262 115.318 58.4228 115.694 58.5159C115.898 58.5661 116.076 58.6126 116.226 58.6556C116.38 58.6985 116.548 58.7576 116.731 58.8328C116.917 58.908 117.076 58.9886 117.209 59.0745C117.345 59.1605 117.479 59.2679 117.612 59.3968C117.748 59.5221 117.857 59.6618 117.939 59.8157C118.025 59.9697 118.093 60.1523 118.143 60.3636C118.197 60.5713 118.224 60.7986 118.224 61.0457C118.224 61.3751 118.163 61.6795 118.041 61.9588C117.92 62.2345 117.76 62.4673 117.563 62.657C117.366 62.8468 117.139 63.008 116.881 63.1404C116.623 63.2729 116.362 63.3696 116.097 63.4305C115.832 63.4914 115.569 63.5218 115.308 63.5218C114.513 63.5218 113.666 63.3159 112.767 62.9041C112.785 62.5174 112.794 62.2793 112.794 62.1898C112.794 61.6061 112.745 61.0242 112.649 60.4442C112.688 60.4191 112.728 60.4066 112.767 60.4066C112.817 60.4066 112.862 60.4191 112.901 60.4442C112.976 60.9061 113.1 61.3143 113.272 61.6688C113.447 62.0233 113.648 62.3043 113.873 62.512C114.099 62.7161 114.332 62.8701 114.572 62.9739C114.815 63.0742 115.06 63.1243 115.308 63.1243C115.87 63.1243 116.301 62.9793 116.602 62.6893C116.906 62.3957 117.058 62.0089 117.058 61.5291C117.058 61.0457 116.946 60.6823 116.72 60.4388C116.498 60.1917 116.072 59.9912 115.442 59.8372C114.654 59.6403 114.038 59.3502 113.594 58.9671C113.154 58.5804 112.933 58.0701 112.933 57.4363C112.933 57.1033 112.987 56.8061 113.095 56.5447C113.206 56.2798 113.347 56.0685 113.519 55.9109C113.694 55.7498 113.898 55.6173 114.131 55.5135C114.364 55.4061 114.593 55.3327 114.819 55.2933C115.048 55.2503 115.281 55.2288 115.517 55.2288C116.226 55.2288 116.964 55.3935 117.73 55.723C117.708 55.9342 117.698 56.1544 117.698 56.3836C117.698 56.9207 117.741 57.3522 117.827 57.678C117.78 57.6959 117.741 57.7049 117.708 57.7049C117.673 57.7049 117.628 57.6959 117.574 57.678Z" fill="white"/>
<line x1="27.2455" y1="10.3016" x2="27.2455" y2="19.3016" stroke="white" stroke-width="2"/>
<line x1="21.2455" y1="10.3016" x2="21.2455" y2="24.3016" stroke="white" stroke-width="2"/>
</svg>
