<svg width="128" height="73" viewBox="0 0 128 73" fill="none" xmlns="http://www.w3.org/2000/svg">
<rect width="128" height="73" fill="#1E1E1E"/>
<line x1="0.311376" y1="40.2596" x2="49.3114" y2="1.25958" stroke="white"/>
<line x1="96.3035" y1="40.0356" x2="49.3035" y2="1.03558" stroke="white"/>
<line x1="109.299" y1="40.0322" x2="63.2994" y2="1.03217" stroke="white"/>
<line x1="127.617" y1="48.1508" x2="45.6167" y2="47.1508" stroke="white"/>
<line x1="57.2431" y1="7.3254" x2="63.2431" y2="0.325399" stroke="white"/>
<line x1="27.1227" y1="9.65079" x2="27.1227" y2="18.6508" stroke="white"/>
<line x1="20.6227" y1="10.1508" x2="27.6227" y2="10.1508" stroke="white"/>
<line x1="21.1227" y1="9.65079" x2="21.1227" y2="23.6508" stroke="white"/>
<path d="M68.7407 70.5026C68.4547 70.5026 68.2422 70.4884 68.1032 70.4599V72.174C68.1032 72.2708 68.1249 72.3278 68.1682 72.3449C68.2228 72.3665 68.3624 72.3774 68.5869 72.3774H68.944L68.9304 72.6508H67.0676V72.3774H67.2282C67.3775 72.3774 67.4618 72.3717 67.4811 72.3603C67.5005 72.3477 67.5142 72.3318 67.5222 72.3124C67.5324 72.2919 67.5375 72.2458 67.5375 72.174V68.5133C67.5375 68.3835 67.4846 68.3066 67.3786 68.2826C67.3194 68.269 67.2322 68.2621 67.1171 68.2621H66.9206L66.9274 67.9818H68.5373C68.9087 67.9818 69.1981 68.0058 69.4055 68.0536C69.614 68.1003 69.7991 68.1898 69.9609 68.3219C70.1238 68.453 70.248 68.6045 70.3334 68.7765C70.42 68.9474 70.4633 69.0995 70.4633 69.2328C70.4633 69.3661 70.4525 69.4755 70.4309 69.561C70.4103 69.6464 70.375 69.7324 70.3249 69.819C70.2759 69.9045 70.2138 69.9831 70.1386 70.0548C69.9723 70.2132 69.7467 70.3294 69.4619 70.4035L70.8051 72.1894C70.8689 72.2691 70.9219 72.3204 70.9641 72.3432C71.0062 72.366 71.0541 72.3774 71.1076 72.3774H71.4084L71.4221 72.6508H70.4069L68.9081 70.4941L68.7407 70.5026ZM68.1032 70.2292C68.159 70.2759 68.3089 70.2992 68.5527 70.2992C68.9765 70.2992 69.2853 70.2263 69.479 70.0805C69.6726 69.9346 69.7695 69.7085 69.7695 69.402C69.7695 69.0648 69.6453 68.7919 69.3969 68.5834C69.1417 68.3692 68.7805 68.2621 68.3134 68.2621C68.2314 68.2621 68.179 68.2758 68.1562 68.3031C68.1209 68.3464 68.1032 68.4399 68.1032 68.5834V70.2292ZM73.2934 72.3295C74.2265 72.3204 74.7819 72.3084 74.9597 72.2936C75.1385 72.2788 75.2405 72.2589 75.2656 72.2338C75.2906 72.2087 75.3094 72.178 75.322 72.1415C75.3356 72.1039 75.3732 71.9006 75.4348 71.5314L75.674 71.5656L75.498 72.6508H71.9501V72.3774H72.1313C72.3056 72.3774 72.4053 72.3688 72.4304 72.3517C72.4566 72.3335 72.4748 72.3124 72.4851 72.2885C72.4964 72.2589 72.5021 72.2002 72.5021 72.1125V68.5629C72.5021 68.4239 72.4771 68.3373 72.4269 68.3031C72.3837 68.2758 72.2452 68.2621 72.0117 68.2621H71.8168L71.81 67.9818H75.4143C75.4211 68.384 75.4331 68.7503 75.4501 69.0807L75.1767 69.0944C75.1596 68.6341 75.1249 68.3761 75.0725 68.3202C75.0565 68.3031 75.0297 68.2929 74.9921 68.2895C74.9557 68.2849 74.8469 68.2826 74.6657 68.2826H73.4746C73.282 68.2826 73.1726 68.2929 73.1464 68.3134C73.1202 68.3339 73.1014 68.359 73.09 68.3886C73.0764 68.4228 73.0695 68.4974 73.0695 68.6125V69.5849C73.0695 69.7216 73.0764 69.7979 73.09 69.8139C73.1048 69.8287 73.1219 69.8401 73.1413 69.8481C73.1664 69.8595 73.2193 69.8652 73.3002 69.8652H74.3581C74.4811 69.8652 74.5518 69.8532 74.57 69.8293C74.5882 69.8042 74.6008 69.7769 74.6076 69.7472C74.6179 69.7085 74.623 69.631 74.623 69.5148V69.2482L74.8828 69.255V70.9281H74.623V70.5641C74.623 70.3693 74.6133 70.2599 74.5939 70.236C74.5746 70.2121 74.5609 70.1978 74.5529 70.1933C74.5461 70.1876 74.5307 70.183 74.5068 70.1796C74.484 70.175 74.4652 70.1728 74.4504 70.1728H73.3207C73.2045 70.1728 73.135 70.1842 73.1123 70.2069C73.0838 70.2377 73.0695 70.2987 73.0695 70.3898V72.0424C73.0695 72.1632 73.0838 72.2412 73.1123 72.2765C73.1407 72.3118 73.2011 72.3295 73.2934 72.3295ZM75.9799 72.3774H76.0637C76.189 72.3774 76.2727 72.3557 76.3149 72.3124C76.357 72.2691 76.4055 72.186 76.4602 72.0629C76.516 71.9387 76.5872 71.7798 76.6738 71.5861C76.7615 71.3913 76.872 71.1457 77.0053 70.8495C77.1386 70.5522 77.2349 70.338 77.2941 70.2069C77.3534 70.0759 77.4047 69.9637 77.4479 69.8703C77.4912 69.7757 77.5209 69.7096 77.5368 69.672C77.5528 69.6344 77.5704 69.5934 77.5898 69.549L78.3024 67.8144H78.4494C78.732 68.5515 79.0891 69.443 79.5209 70.4889C79.9527 71.5337 80.1914 72.0988 80.237 72.1842C80.2826 72.2697 80.3293 72.3232 80.3771 72.3449C80.4261 72.3665 80.4934 72.3774 80.5788 72.3774H80.6831L80.6762 72.6508H79.08L79.0869 72.3774H79.2971C79.4133 72.3774 79.4936 72.3728 79.538 72.3637C79.5825 72.3534 79.6047 72.3301 79.6047 72.2936C79.6047 72.2674 79.5939 72.2281 79.5722 72.1757C79.5517 72.1221 79.5392 72.0891 79.5346 72.0766L79.0168 70.8034H77.3933L76.8395 72.0356C76.7928 72.1495 76.7695 72.2287 76.7695 72.2731C76.7695 72.3175 76.7871 72.346 76.8225 72.3586C76.8589 72.3711 76.937 72.3774 77.0566 72.3774H77.3437V72.6508H75.9868L75.9799 72.3774ZM77.5266 70.4941H78.8989L78.2341 68.8363L77.5266 70.4941ZM81.059 68.2621L81.0659 67.9818H82.8569V68.2621H82.5424C82.4125 68.2621 82.3373 68.2712 82.3168 68.2895C82.2963 68.3066 82.2804 68.3248 82.269 68.3442C82.2508 68.3749 82.2416 68.4336 82.2416 68.5202V72.0561C82.2416 72.203 82.2707 72.2885 82.3288 72.3124C82.3596 72.3238 82.4074 72.3295 82.4724 72.3295C83.6516 72.3227 84.2725 72.2879 84.3352 72.2253C84.3705 72.1899 84.3967 72.1313 84.4138 72.0492C84.4309 71.9672 84.4445 71.8988 84.4548 71.8442C84.4662 71.7895 84.4764 71.7342 84.4855 71.6784C84.4958 71.6214 84.5083 71.5513 84.5231 71.4682L84.7675 71.4818L84.5368 72.6508H81.1564L81.1496 72.3774H81.3461C81.5056 72.3774 81.5956 72.3677 81.6162 72.3483C81.6378 72.3278 81.6509 72.313 81.6555 72.3039C81.66 72.2948 81.664 72.2788 81.6674 72.256C81.672 72.2253 81.6743 72.1774 81.6743 72.1125V68.4928C81.6743 68.3926 81.6492 68.3293 81.5991 68.3031C81.5489 68.2758 81.4504 68.2621 81.3034 68.2621H81.059ZM89.2143 72.3295C90.1474 72.3204 90.7028 72.3084 90.8806 72.2936C91.0594 72.2788 91.1614 72.2589 91.1865 72.2338C91.2115 72.2087 91.2303 72.178 91.2429 72.1415C91.2565 72.1039 91.2941 71.9006 91.3557 71.5314L91.5949 71.5656L91.4189 72.6508H87.871V72.3774H88.0522C88.2265 72.3774 88.3262 72.3688 88.3513 72.3517C88.3775 72.3335 88.3957 72.3124 88.406 72.2885C88.4173 72.2589 88.423 72.2002 88.423 72.1125V68.5629C88.423 68.4239 88.398 68.3373 88.3478 68.3031C88.3046 68.2758 88.1661 68.2621 87.9326 68.2621H87.7377L87.7309 67.9818H91.3352C91.342 68.384 91.354 68.7503 91.371 69.0807L91.0976 69.0944C91.0805 68.6341 91.0458 68.3761 90.9934 68.3202C90.9774 68.3031 90.9506 68.2929 90.913 68.2895C90.8766 68.2849 90.7678 68.2826 90.5866 68.2826H89.3955C89.2029 68.2826 89.0935 68.2929 89.0673 68.3134C89.0411 68.3339 89.0223 68.359 89.0109 68.3886C88.9973 68.4228 88.9904 68.4974 88.9904 68.6125V69.5849C88.9904 69.7216 88.9973 69.7979 89.0109 69.8139C89.0257 69.8287 89.0428 69.8401 89.0622 69.8481C89.0873 69.8595 89.1402 69.8652 89.2211 69.8652H90.279C90.402 69.8652 90.4727 69.8532 90.4909 69.8293C90.5091 69.8042 90.5217 69.7769 90.5285 69.7472C90.5388 69.7085 90.5439 69.631 90.5439 69.5148V69.2482L90.8037 69.255V70.9281H90.5439V70.5641C90.5439 70.3693 90.5342 70.2599 90.5148 70.236C90.4955 70.2121 90.4818 70.1978 90.4738 70.1933C90.467 70.1876 90.4516 70.183 90.4277 70.1796C90.4049 70.175 90.3861 70.1728 90.3713 70.1728H89.2416C89.1254 70.1728 89.0559 70.1842 89.0331 70.2069C89.0047 70.2377 88.9904 70.2987 88.9904 70.3898V72.0424C88.9904 72.1632 89.0047 72.2412 89.0331 72.2765C89.0616 72.3118 89.122 72.3295 89.2143 72.3295ZM92.3024 72.8473C92.2648 72.6377 92.1737 72.1757 92.029 71.4613L92.2751 71.4323L92.3657 71.8664C92.3976 72.019 92.4226 72.1068 92.4409 72.1296C92.4602 72.1512 92.483 72.1711 92.5092 72.1894C92.5366 72.2065 92.5616 72.219 92.5844 72.227C92.6072 72.2349 92.671 72.2577 92.7758 72.2953C93.0128 72.3785 93.2447 72.4201 93.4714 72.4201C93.6992 72.4201 93.8832 72.387 94.0234 72.321C94.1635 72.2549 94.2769 72.1563 94.3635 72.0253C94.4501 71.8943 94.4934 71.765 94.4934 71.6374C94.4934 71.5086 94.4763 71.4044 94.4421 71.3246C94.4079 71.2449 94.3646 71.1737 94.3122 71.111C94.2609 71.0483 94.1937 70.984 94.1105 70.9179C93.9829 70.8176 93.812 70.7094 93.5978 70.5932L93.3107 70.4325C93.0259 70.273 92.8425 70.154 92.7604 70.0754C92.6784 69.9967 92.6112 69.9255 92.5588 69.8617C92.5075 69.7979 92.4665 69.7324 92.4357 69.6652C92.3662 69.5137 92.3315 69.3496 92.3315 69.173C92.3315 68.9953 92.3714 68.8278 92.4511 68.6706C92.5309 68.5133 92.6357 68.3812 92.7656 68.2741C93.047 68.0417 93.3666 67.9255 93.7243 67.9255C93.902 67.9255 94.061 67.9488 94.2011 67.9955C94.3413 68.0422 94.421 68.0656 94.4404 68.0656C94.4597 68.0656 94.478 68.0508 94.4951 68.0212C94.5133 67.9904 94.5247 67.9448 94.5292 67.8844L94.7668 67.8691L94.871 69.1508L94.6198 69.1576L94.5566 68.5356C94.4085 68.4205 94.1977 68.3373 93.9243 68.286C93.8183 68.2655 93.7021 68.2553 93.5756 68.2553C93.4503 68.2553 93.3261 68.2866 93.2031 68.3493C93.08 68.4119 92.9809 68.5008 92.9057 68.6159C92.8305 68.731 92.7929 68.8426 92.7929 68.9508C92.7929 69.0591 92.8032 69.1468 92.8237 69.214C92.8442 69.2801 92.8749 69.3422 92.916 69.4003C92.9581 69.4584 93.0037 69.5125 93.0527 69.5627C93.1017 69.6128 93.1621 69.6635 93.2338 69.7148C93.3443 69.7934 93.489 69.8828 93.6679 69.9831L94.0524 70.1933C94.327 70.3459 94.5116 70.4656 94.6061 70.5522C94.7019 70.6388 94.7753 70.7128 94.8266 70.7743C94.879 70.8347 94.9217 70.8962 94.9548 70.9589C95.0254 71.0968 95.0607 71.2397 95.0607 71.3879C95.0607 71.5348 95.0385 71.6721 94.9941 71.7997C94.9508 71.9262 94.8841 72.0452 94.7941 72.1569C94.7053 72.2674 94.5982 72.3637 94.4728 72.4457C94.204 72.6246 93.8701 72.714 93.4714 72.714C93.2458 72.714 93.0624 72.6929 92.9211 72.6508C92.7798 72.6086 92.6927 72.5876 92.6596 72.5876C92.5753 72.5876 92.5331 72.6366 92.5331 72.7345L92.54 72.8251L92.3024 72.8473ZM99.6921 67.9818L99.6083 69.1012L99.3554 69.0944C99.3839 68.7594 99.3981 68.5566 99.3981 68.486C99.3981 68.4142 99.3731 68.3635 99.3229 68.3339C99.274 68.3043 99.18 68.2895 99.041 68.2895C98.7322 68.2895 98.4935 68.2895 98.3249 68.2895C98.1563 68.2895 98.0566 68.2923 98.0258 68.298C97.9962 68.3037 97.9746 68.3083 97.9609 68.3117C97.9472 68.314 97.933 68.3231 97.9182 68.339C97.9033 68.355 97.8937 68.3681 97.8891 68.3783C97.8857 68.3874 97.8817 68.408 97.8771 68.4399C97.8737 68.4706 97.872 68.4968 97.872 68.5185V72.0561C97.872 72.2008 97.8954 72.2913 97.9421 72.3278C97.9842 72.3608 98.0959 72.3774 98.277 72.3774H98.5573L98.5642 72.6508L96.7167 72.644V72.3774C96.7954 72.3774 96.8614 72.3774 96.915 72.3774C96.9685 72.3774 97.0135 72.3762 97.05 72.3739C97.0865 72.3717 97.1132 72.37 97.1303 72.3688C97.1474 72.3665 97.1668 72.3625 97.1884 72.3568C97.2112 72.35 97.2266 72.3437 97.2346 72.3381C97.2437 72.3324 97.2539 72.3232 97.2653 72.3107C97.2767 72.2982 97.2836 72.2862 97.2858 72.2748C97.2893 72.2623 97.2927 72.2452 97.2961 72.2235C97.3018 72.1973 97.3046 72.1506 97.3046 72.0834V68.6825C97.3046 68.5037 97.2932 68.3994 97.2705 68.3698C97.2488 68.339 97.2243 68.3191 97.197 68.31C97.1616 68.2963 97.095 68.2895 96.997 68.2895H96.2622C96.1095 68.2895 96.0149 68.302 95.9785 68.3271C95.942 68.351 95.9164 68.3743 95.9016 68.3971C95.8867 68.4199 95.8748 68.4461 95.8657 68.4757C95.8577 68.5042 95.8503 68.5395 95.8435 68.5817C95.8366 68.6353 95.8286 68.7247 95.8195 68.85C95.8116 68.9742 95.8053 69.0631 95.8007 69.1166L95.5478 69.1081C95.5888 68.7127 95.6236 68.3373 95.652 67.9818H99.6921ZM99.3657 72.3774H99.4494C99.5747 72.3774 99.6585 72.3557 99.7006 72.3124C99.7428 72.2691 99.7912 72.186 99.8459 72.0629C99.9017 71.9387 99.9729 71.7798 100.06 71.5861C100.147 71.3913 100.258 71.1457 100.391 70.8495C100.524 70.5522 100.621 70.338 100.68 70.2069C100.739 70.0759 100.79 69.9637 100.834 69.8703C100.877 69.7757 100.907 69.7096 100.923 69.672C100.939 69.6344 100.956 69.5934 100.976 69.549L101.688 67.8144H101.835C102.118 68.5515 102.475 69.443 102.907 70.4889C103.338 71.5337 103.577 72.0988 103.623 72.1842C103.668 72.2697 103.715 72.3232 103.763 72.3449C103.812 72.3665 103.879 72.3774 103.965 72.3774H104.069L104.062 72.6508H102.466L102.473 72.3774H102.683C102.799 72.3774 102.879 72.3728 102.924 72.3637C102.968 72.3534 102.99 72.3301 102.99 72.2936C102.99 72.2674 102.98 72.2281 102.958 72.1757C102.937 72.1221 102.925 72.0891 102.92 72.0766L102.403 70.8034H100.779L100.225 72.0356C100.179 72.1495 100.155 72.2287 100.155 72.2731C100.155 72.3175 100.173 72.346 100.208 72.3586C100.245 72.3711 100.323 72.3774 100.442 72.3774H100.729V72.6508H99.3725L99.3657 72.3774ZM100.912 70.4941H102.285L101.62 68.8363L100.912 70.4941ZM107.984 67.9818L107.9 69.1012L107.647 69.0944C107.676 68.7594 107.69 68.5566 107.69 68.486C107.69 68.4142 107.665 68.3635 107.615 68.3339C107.566 68.3043 107.472 68.2895 107.333 68.2895C107.024 68.2895 106.786 68.2895 106.617 68.2895C106.448 68.2895 106.349 68.2923 106.318 68.298C106.288 68.3037 106.267 68.3083 106.253 68.3117C106.239 68.314 106.225 68.3231 106.21 68.339C106.195 68.355 106.186 68.3681 106.181 68.3783C106.178 68.3874 106.174 68.408 106.169 68.4399C106.166 68.4706 106.164 68.4968 106.164 68.5185V72.0561C106.164 72.2008 106.187 72.2913 106.234 72.3278C106.276 72.3608 106.388 72.3774 106.569 72.3774H106.849L106.856 72.6508L105.009 72.644V72.3774C105.087 72.3774 105.153 72.3774 105.207 72.3774C105.261 72.3774 105.306 72.3762 105.342 72.3739C105.378 72.3717 105.405 72.37 105.422 72.3688C105.439 72.3665 105.459 72.3625 105.48 72.3568C105.503 72.35 105.519 72.3437 105.527 72.3381C105.536 72.3324 105.546 72.3232 105.557 72.3107C105.569 72.2982 105.576 72.2862 105.578 72.2748C105.581 72.2623 105.585 72.2452 105.588 72.2235C105.594 72.1973 105.597 72.1506 105.597 72.0834V68.6825C105.597 68.5037 105.585 68.3994 105.562 68.3698C105.541 68.339 105.516 68.3191 105.489 68.31C105.454 68.2963 105.387 68.2895 105.289 68.2895H104.554C104.401 68.2895 104.307 68.302 104.27 68.3271C104.234 68.351 104.208 68.3743 104.194 68.3971C104.179 68.4199 104.167 68.4461 104.158 68.4757C104.15 68.5042 104.142 68.5395 104.135 68.5817C104.129 68.6353 104.121 68.7247 104.112 68.85C104.104 68.9742 104.097 69.0631 104.093 69.1166L103.84 69.1081C103.881 68.7127 103.916 68.3373 103.944 67.9818H107.984ZM109.845 72.3295C110.778 72.3204 111.334 72.3084 111.511 72.2936C111.69 72.2788 111.792 72.2589 111.817 72.2338C111.842 72.2087 111.861 72.178 111.874 72.1415C111.887 72.1039 111.925 71.9006 111.987 71.5314L112.226 71.5656L112.05 72.6508H108.502V72.3774H108.683C108.857 72.3774 108.957 72.3688 108.982 72.3517C109.008 72.3335 109.027 72.3124 109.037 72.2885C109.048 72.2589 109.054 72.2002 109.054 72.1125V68.5629C109.054 68.4239 109.029 68.3373 108.979 68.3031C108.935 68.2758 108.797 68.2621 108.563 68.2621H108.369L108.362 67.9818H111.966C111.973 68.384 111.985 68.7503 112.002 69.0807L111.728 69.0944C111.711 68.6341 111.677 68.3761 111.624 68.3202C111.608 68.3031 111.581 68.2929 111.544 68.2895C111.507 68.2849 111.399 68.2826 111.217 68.2826H110.026C109.834 68.2826 109.724 68.2929 109.698 68.3134C109.672 68.3339 109.653 68.359 109.642 68.3886C109.628 68.4228 109.621 68.4974 109.621 68.6125V69.5849C109.621 69.7216 109.628 69.7979 109.642 69.8139C109.657 69.8287 109.674 69.8401 109.693 69.8481C109.718 69.8595 109.771 69.8652 109.852 69.8652H110.91C111.033 69.8652 111.104 69.8532 111.122 69.8293C111.14 69.8042 111.153 69.7769 111.159 69.7472C111.17 69.7085 111.175 69.631 111.175 69.5148V69.2482L111.435 69.255V70.9281H111.175V70.5641C111.175 70.3693 111.165 70.2599 111.146 70.236C111.126 70.2121 111.113 70.1978 111.105 70.1933C111.098 70.1876 111.082 70.183 111.059 70.1796C111.036 70.175 111.017 70.1728 111.002 70.1728H109.873C109.756 70.1728 109.687 70.1842 109.664 70.2069C109.636 70.2377 109.621 70.2987 109.621 70.3898V72.0424C109.621 72.1632 109.636 72.2412 109.664 72.2765C109.692 72.3118 109.753 72.3295 109.845 72.3295Z" fill="white"/>
<path d="M62.4025 54.7553C63.2046 54.7839 63.8277 54.7983 64.2717 54.7983C64.7157 54.7983 65.3387 54.7839 66.1408 54.7553C66.1551 54.8126 66.1623 54.852 66.1623 54.8735C66.1623 54.8985 66.1551 54.9433 66.1408 55.0077C65.9761 55.0221 65.8418 55.0382 65.738 55.0561C65.6377 55.0704 65.5124 55.0955 65.362 55.1313C65.2152 55.1671 65.1024 55.219 65.0236 55.287C64.9449 55.3515 64.9037 55.4303 64.9001 55.5234C64.8535 56.594 64.8303 57.5912 64.8303 58.5151C65.2277 58.5294 65.8293 58.5365 66.635 58.5365C67.2938 58.5365 67.9545 58.5258 68.6169 58.5043C68.6026 57.1723 68.5847 56.1786 68.5632 55.5234C68.5596 55.4303 68.5184 55.3515 68.4396 55.287C68.3609 55.219 68.2463 55.1671 68.0959 55.1313C67.9455 55.0955 67.8184 55.0704 67.7145 55.0561C67.6143 55.0382 67.4818 55.0221 67.3171 55.0077C67.3028 54.9433 67.2956 54.8985 67.2956 54.8735C67.2956 54.852 67.3028 54.8126 67.3171 54.7553C68.1263 54.7839 68.7494 54.7983 69.1862 54.7983C69.6267 54.7983 70.2515 54.7839 71.0607 54.7553C71.0751 54.8126 71.0822 54.852 71.0822 54.8735C71.0822 54.8985 71.0751 54.9433 71.0607 55.0077C70.896 55.0221 70.7617 55.0382 70.6579 55.0561C70.5576 55.0704 70.4323 55.0955 70.2819 55.1313C70.1315 55.1671 70.017 55.219 69.9382 55.287C69.8594 55.3515 69.8182 55.4303 69.8146 55.5234C69.7788 56.415 69.7609 57.482 69.7609 58.7245C69.7609 59.9599 69.7788 61.0234 69.8146 61.915C69.8182 62.0081 69.8594 62.0886 69.9382 62.1567C70.017 62.2211 70.1315 62.2712 70.2819 62.307C70.4323 62.3429 70.5576 62.3697 70.6579 62.3876C70.7617 62.4019 70.896 62.4163 71.0607 62.4306C71.0751 62.4879 71.0822 62.5362 71.0822 62.5756C71.0822 62.6042 71.0751 62.6401 71.0607 62.683C70.452 62.6615 69.8272 62.6508 69.1862 62.6508C68.5453 62.6508 67.9222 62.6615 67.3171 62.683C67.3028 62.6401 67.2956 62.6042 67.2956 62.5756C67.2956 62.5147 67.3028 62.4664 67.3171 62.4306C67.4818 62.4163 67.6161 62.4019 67.7199 62.3876C67.8238 62.3697 67.9509 62.3429 68.1013 62.307C68.2517 62.2712 68.3662 62.2211 68.445 62.1567C68.5238 62.0886 68.5632 62.0081 68.5632 61.915C68.5918 60.6366 68.6097 59.668 68.6169 59.0092C67.9545 58.9877 67.2938 58.977 66.635 58.977C66.2268 58.977 65.6252 58.9841 64.8303 58.9985C64.8303 59.7611 64.85 60.7333 64.8894 61.915C64.8929 62.0081 64.9341 62.0886 65.0129 62.1567C65.0917 62.2211 65.2045 62.2712 65.3513 62.307C65.5017 62.3429 65.627 62.3697 65.7272 62.3876C65.8311 62.4019 65.9654 62.4163 66.1301 62.4306C66.1444 62.5022 66.1516 62.5505 66.1516 62.5756C66.1516 62.6042 66.1444 62.6401 66.1301 62.683C65.5213 62.6615 64.8983 62.6508 64.2609 62.6508C63.6164 62.6508 62.9934 62.6615 62.3918 62.683C62.3775 62.6401 62.3703 62.6042 62.3703 62.5756C62.3703 62.5147 62.3775 62.4664 62.3918 62.4306C62.5565 62.4163 62.689 62.4019 62.7893 62.3876C62.8931 62.3697 63.0184 62.3429 63.1652 62.307C63.3156 62.2712 63.4302 62.2211 63.509 62.1567C63.5878 62.0886 63.6289 62.0081 63.6325 61.915C63.6755 60.7942 63.697 59.6645 63.697 58.5258C63.697 57.3656 63.6791 56.3648 63.6433 55.5234C63.6397 55.4303 63.5985 55.3515 63.5197 55.287C63.4409 55.219 63.3264 55.1671 63.176 55.1313C63.0292 55.0955 62.9038 55.0704 62.8 55.0561C62.6997 55.0382 62.5672 55.0221 62.4025 55.0077C62.3882 54.9433 62.3811 54.8985 62.3811 54.8735C62.3811 54.8376 62.3882 54.7983 62.4025 54.7553ZM79.1389 54.5727C79.4146 54.5727 79.7046 54.6013 80.009 54.6586C80.3169 54.7159 80.6195 54.8108 80.9167 54.9433C81.2175 55.0722 81.5039 55.2441 81.7761 55.4589C82.0518 55.6702 82.2935 55.9298 82.5012 56.2377C82.7088 56.5457 82.8736 56.9055 82.9953 57.3173C83.1206 57.7291 83.1833 58.2017 83.1833 58.7353C83.1833 59.2724 83.1224 59.7486 83.0007 60.164C82.8789 60.5758 82.7142 60.9356 82.5065 61.2436C82.2989 61.5479 82.0572 61.8057 81.7814 62.017C81.5093 62.2247 81.2211 62.393 80.9167 62.5219C80.6159 62.6472 80.308 62.7367 79.9929 62.7904C79.6778 62.8477 79.377 62.8764 79.0905 62.8764C78.8184 62.8764 78.5283 62.8477 78.2204 62.7904C77.916 62.7367 77.6135 62.6472 77.3127 62.5219C77.0119 62.393 76.7237 62.2247 76.4479 62.017C76.1758 61.8057 75.9341 61.5479 75.7228 61.2436C75.5152 60.9356 75.3487 60.5758 75.2233 60.164C75.1016 59.7486 75.0407 59.2724 75.0407 58.7353C75.0407 58.1838 75.1052 57.6986 75.2341 57.2797C75.363 56.8572 75.5331 56.4919 75.7443 56.184C75.9592 55.8761 76.2062 55.62 76.4855 55.4159C76.7684 55.2082 77.0602 55.0417 77.361 54.9164C77.6654 54.7911 77.9698 54.7034 78.2741 54.6532C78.5821 54.5995 78.8703 54.5727 79.1389 54.5727ZM79.112 54.9594C78.7754 54.9594 78.4764 55.0149 78.215 55.1259C77.9536 55.2369 77.7245 55.3873 77.5275 55.5771C77.3306 55.7633 77.1641 55.9817 77.028 56.2323C76.892 56.4794 76.781 56.7426 76.695 57.0219C76.6127 57.3012 76.5518 57.5876 76.5124 57.8813C76.4766 58.1749 76.4587 58.4596 76.4587 58.7353C76.4587 59.0002 76.4766 59.276 76.5124 59.5624C76.5482 59.8489 76.6073 60.1318 76.6896 60.411C76.772 60.6868 76.8794 60.9499 77.0119 61.2006C77.148 61.4513 77.3145 61.6715 77.5114 61.8612C77.7084 62.051 77.9375 62.2032 78.1989 62.3178C78.4639 62.4288 78.7683 62.4843 79.112 62.4843C79.4486 62.4843 79.7476 62.4306 80.009 62.3232C80.2704 62.2122 80.4995 62.0636 80.6965 61.8774C80.8934 61.6876 81.0581 61.4692 81.1906 61.2221C81.3267 60.9714 81.4359 60.7082 81.5183 60.4325C81.6042 60.1532 81.6651 59.8686 81.7009 59.5785C81.7403 59.2885 81.76 59.0074 81.76 58.7353C81.76 58.4596 81.7403 58.1749 81.7009 57.8813C81.6651 57.5876 81.6042 57.3012 81.5183 57.0219C81.4359 56.7426 81.3267 56.4794 81.1906 56.2323C81.0546 55.9817 80.888 55.7633 80.6911 55.5771C80.4942 55.3873 80.265 55.2369 80.0036 55.1259C79.7422 55.0149 79.445 54.9594 79.112 54.9594ZM87.2814 54.7553C87.9546 54.7839 88.8015 54.7983 89.822 54.7983L91.9006 60.4272H91.9274L94.092 54.7983H94.7097C95.1537 54.7983 95.7803 54.7839 96.5895 54.7553C96.6039 54.8126 96.611 54.852 96.611 54.8735C96.611 54.8985 96.6039 54.9433 96.5895 55.0077C96.4606 55.0185 96.3568 55.0292 96.278 55.04C96.1992 55.0507 96.0936 55.0686 95.9611 55.0937C95.8322 55.1187 95.7284 55.1492 95.6496 55.185C95.5708 55.2172 95.501 55.2638 95.4401 55.3246C95.3793 55.3819 95.347 55.4482 95.3435 55.5234C95.3076 56.3648 95.2897 57.3656 95.2897 58.5258C95.2897 59.7039 95.313 60.8336 95.3596 61.915C95.3631 62.0081 95.4043 62.0886 95.4831 62.1567C95.5619 62.2211 95.6747 62.2712 95.8215 62.307C95.9719 62.3429 96.0972 62.3697 96.1975 62.3876C96.3013 62.4019 96.4356 62.4163 96.6003 62.4306C96.6146 62.4879 96.6218 62.5362 96.6218 62.5756C96.6218 62.6042 96.6146 62.6401 96.6003 62.683C95.9951 62.6615 95.3721 62.6508 94.7311 62.6508C94.0866 62.6508 93.4636 62.6615 92.862 62.683C92.8477 62.6401 92.8405 62.6042 92.8405 62.5756C92.8405 62.5147 92.8477 62.4664 92.862 62.4306C93.0267 62.4163 93.1592 62.4019 93.2595 62.3876C93.3633 62.3697 93.4886 62.3429 93.6354 62.307C93.7858 62.2712 93.9004 62.2211 93.9792 62.1567C94.058 62.0886 94.0991 62.0081 94.1027 61.915C94.1385 60.7978 94.1564 59.8005 94.1564 58.9233C94.1564 58.0818 94.1385 57.1239 94.1027 56.0497H94.0598L91.6052 62.5165H91.5515L88.9357 55.9208H88.8767C88.848 56.7909 88.8337 57.7917 88.8337 58.9233C88.8337 59.754 88.8516 60.7244 88.8874 61.8344C88.8946 62.1602 89.2902 62.359 90.0744 62.4306C90.0923 62.4915 90.1013 62.5398 90.1013 62.5756C90.1013 62.6114 90.0923 62.6472 90.0744 62.683C89.5051 62.6615 88.9966 62.6508 88.549 62.6508C88.2626 62.6508 87.7827 62.6615 87.1096 62.683C87.0917 62.6472 87.0827 62.6114 87.0827 62.5756C87.0827 62.5147 87.0917 62.4664 87.1096 62.4306C87.9009 62.3554 88.2966 62.1567 88.2966 61.8344C88.3395 60.7172 88.361 59.6143 88.361 58.5258C88.361 57.7416 88.3503 56.9091 88.3288 56.0282C88.3252 55.8778 88.3163 55.7525 88.3019 55.6523C88.2876 55.5484 88.2608 55.4589 88.2214 55.3837C88.182 55.3085 88.1408 55.2494 88.0978 55.2065C88.0549 55.1635 87.9886 55.1259 87.8991 55.0937C87.8096 55.0579 87.7219 55.0328 87.6359 55.0185C87.5536 55.0006 87.4354 54.9809 87.2814 54.9594C87.2671 54.9307 87.26 54.8985 87.26 54.8627C87.26 54.8197 87.2671 54.7839 87.2814 54.7553ZM100.29 54.7553C101.092 54.7839 101.719 54.7983 102.17 54.7983C105.242 54.7804 106.943 54.766 107.273 54.7553C107.319 55.1134 107.411 55.4535 107.547 55.7758C107.683 56.0945 107.856 56.4346 108.068 56.7963C108.039 56.8572 107.976 56.9055 107.88 56.9413C107.751 56.6978 107.595 56.4812 107.412 56.2914C107.23 56.1016 106.999 55.9226 106.719 55.7543C106.444 55.586 106.098 55.4482 105.683 55.3407C105.271 55.2333 104.8 55.1617 104.27 55.1259H102.788C102.741 56.6405 102.718 57.781 102.718 58.5473H104.249C104.353 58.5473 104.449 58.5401 104.539 58.5258C104.632 58.5079 104.718 58.4792 104.797 58.4399C104.875 58.3969 104.945 58.3575 105.006 58.3217C105.071 58.2823 105.135 58.225 105.199 58.1498C105.264 58.071 105.318 58.0066 105.361 57.9565C105.404 57.9027 105.455 57.8222 105.516 57.7148C105.577 57.6073 105.624 57.5232 105.656 57.4623C105.688 57.4014 105.737 57.3066 105.801 57.1777C105.869 57.0487 105.921 56.9521 105.957 56.8876C106.068 56.9306 106.136 56.9771 106.161 57.0273C106.01 57.2922 105.883 57.5859 105.779 57.9081C105.676 58.2304 105.624 58.4989 105.624 58.7138C105.624 59.2222 105.803 59.7826 106.161 60.3949C106.132 60.4522 106.064 60.5006 105.957 60.54C105.917 60.4683 105.862 60.3663 105.79 60.2338C105.722 60.0977 105.668 59.9939 105.629 59.9223C105.59 59.8507 105.536 59.7594 105.468 59.6484C105.4 59.5374 105.339 59.4514 105.285 59.3905C105.235 59.3297 105.169 59.2616 105.087 59.1864C105.008 59.1112 104.929 59.0557 104.85 59.0199C104.772 58.9805 104.68 58.9483 104.576 58.9233C104.476 58.8946 104.367 58.8803 104.249 58.8803H102.718C102.718 59.4496 102.738 60.5972 102.777 62.3232H104.49C105.02 62.2874 105.491 62.2157 105.903 62.1083C106.318 62.0009 106.664 61.863 106.94 61.6947C107.219 61.5264 107.45 61.3474 107.633 61.1576C107.815 60.9679 107.971 60.7512 108.1 60.5077C108.196 60.5435 108.259 60.5901 108.288 60.6474C108.27 60.6832 108.223 60.7691 108.148 60.9052C108.073 61.0413 108.023 61.1344 107.998 61.1845C107.973 61.231 107.93 61.3152 107.869 61.4369C107.812 61.5551 107.769 61.6518 107.74 61.727C107.711 61.7986 107.677 61.8899 107.638 62.0009C107.602 62.1119 107.572 62.2211 107.547 62.3285C107.525 62.4324 107.507 62.5398 107.493 62.6508H102.777C101.807 62.6508 100.974 62.6615 100.279 62.683C100.265 62.6401 100.258 62.6042 100.258 62.5756C100.258 62.5505 100.265 62.5022 100.279 62.4306C100.444 62.4163 100.577 62.4019 100.677 62.3876C100.781 62.3697 100.906 62.3429 101.053 62.307C101.203 62.2712 101.318 62.2211 101.397 62.1567C101.475 62.0886 101.517 62.0081 101.52 61.915C101.563 60.7942 101.585 59.6645 101.585 58.5258C101.585 57.3656 101.567 56.3648 101.531 55.5234C101.527 55.4303 101.486 55.3515 101.407 55.287C101.329 55.219 101.214 55.1671 101.064 55.1313C100.917 55.0955 100.792 55.0704 100.688 55.0561C100.587 55.0382 100.455 55.0221 100.29 55.0077C100.276 54.9433 100.269 54.8985 100.269 54.8735C100.269 54.852 100.276 54.8126 100.29 54.7553ZM116.951 57.0273C116.815 56.372 116.565 55.8635 116.199 55.5019C115.838 55.1402 115.403 54.9594 114.894 54.9594C114.397 54.9594 114.01 55.0776 113.734 55.3139C113.462 55.5502 113.326 55.8653 113.326 56.2592C113.326 56.4776 113.346 56.6584 113.385 56.8017C113.424 56.9449 113.505 57.0846 113.627 57.2206C113.748 57.3531 113.926 57.4713 114.158 57.5751C114.391 57.6754 114.696 57.7721 115.071 57.8652C115.276 57.9153 115.453 57.9618 115.603 58.0048C115.757 58.0478 115.925 58.1068 116.108 58.182C116.294 58.2572 116.454 58.3378 116.586 58.4237C116.722 58.5097 116.856 58.6171 116.989 58.746C117.125 58.8713 117.234 59.011 117.317 59.165C117.403 59.3189 117.471 59.5015 117.521 59.7128C117.574 59.9205 117.601 60.1479 117.601 60.3949C117.601 60.7244 117.54 61.0287 117.419 61.308C117.297 61.5837 117.138 61.8165 116.941 62.0063C116.744 62.196 116.516 62.3572 116.258 62.4897C116.001 62.6221 115.739 62.7188 115.474 62.7797C115.209 62.8406 114.946 62.871 114.685 62.871C113.89 62.871 113.043 62.6651 112.144 62.2533C112.162 61.8666 112.171 61.6285 112.171 61.539C112.171 60.9553 112.123 60.3735 112.026 59.7934C112.065 59.7683 112.105 59.7558 112.144 59.7558C112.194 59.7558 112.239 59.7683 112.279 59.7934C112.354 60.2553 112.477 60.6635 112.649 61.018C112.825 61.3725 113.025 61.6536 113.251 61.8612C113.476 62.0653 113.709 62.2193 113.949 62.3232C114.192 62.4234 114.438 62.4735 114.685 62.4735C115.247 62.4735 115.678 62.3285 115.979 62.0385C116.284 61.7449 116.436 61.3582 116.436 60.8783C116.436 60.3949 116.323 60.0315 116.097 59.788C115.875 59.5409 115.449 59.3404 114.819 59.1864C114.031 58.9895 113.415 58.6995 112.971 58.3163C112.531 57.9296 112.311 57.4193 112.311 56.7856C112.311 56.4526 112.364 56.1554 112.472 55.894C112.583 55.629 112.724 55.4177 112.896 55.2602C113.072 55.099 113.276 54.9666 113.508 54.8627C113.741 54.7553 113.97 54.6819 114.196 54.6425C114.425 54.5995 114.658 54.578 114.894 54.578C115.603 54.578 116.341 54.7428 117.107 55.0722C117.086 55.2834 117.075 55.5037 117.075 55.7328C117.075 56.2699 117.118 56.7014 117.204 57.0273C117.157 57.0452 117.118 57.0541 117.086 57.0541C117.05 57.0541 117.005 57.0452 116.951 57.0273Z" fill="white"/>
</svg>
